<svg xmlns="http://www.w3.org/2000/svg" width="40.031" height="31" viewBox="0 0 40.031 31">
  <defs>
    <style>
      .cls-1 {
        fill: #3f6295;
        fill-rule: evenodd;
      }
    </style>
  </defs>
  <path id="Shape_1_copy_3" data-name="Shape 1 copy 3" class="cls-1" d="M995.948,1090.32a18.568,18.568,0,0,0-6.2-8.03,18.127,18.127,0,0,0-9.525-3.52l-7.107-3.55a0.084,0.084,0,0,1-.043-0.02,2.6,2.6,0,0,0-.976-0.2,2.382,2.382,0,0,0-2.312,2.55,5.7,5.7,0,0,0,.937,2.67c0.063,0.11.127,0.23,0.192,0.35a18.67,18.67,0,0,0-7.358,6.54l-4.857-2.94c-0.031-.02-0.063-0.03-0.1-0.05a2.088,2.088,0,0,0-.768-0.16,1.881,1.881,0,0,0-1.837,2c0,1.33,1.507,3.6,2.24,4.63-0.733,1.03-2.24,3.3-2.24,4.63a1.881,1.881,0,0,0,1.837,2,2.088,2.088,0,0,0,.768-0.16c0.033-.02.065-0.03,0.1-0.05l4.856-2.94a18.3,18.3,0,0,0,7.264,6.49c-0.049.1-.1,0.19-0.145,0.28a5.726,5.726,0,0,0-.889,2.61A2.388,2.388,0,0,0,972.1,1106h0a2.6,2.6,0,0,0,.976-0.2l0.045-.03,6.628-3.33a18.379,18.379,0,0,0,16.2-11.58A0.74,0.74,0,0,0,995.948,1090.32Zm-10.112,9.18a13.14,13.14,0,0,1-3.264-9.07,15.114,15.114,0,0,1,.742-4.74,0.727,0.727,0,0,0-.474-0.92,0.735,0.735,0,0,0-.934.47,16.462,16.462,0,0,0-.815,5.19,14.852,14.852,0,0,0,3.284,9.65,16.4,16.4,0,0,1-4.847.91,0.673,0.673,0,0,0-.309.08l-6.747,3.39a1.044,1.044,0,0,1-.373.08h0a0.954,0.954,0,0,1-.831-1.09,4.688,4.688,0,0,1,.724-1.94c0.152-.29.324-0.62,0.5-0.97a0.724,0.724,0,0,0-.364-0.98,16.958,16.958,0,0,1-7.682-6.86,0.745,0.745,0,0,0-.459-0.34,0.551,0.551,0,0,0-.18-0.02,0.75,0.75,0,0,0-.387.1l-5.434,3.29a0.4,0.4,0,0,1-.145.03,0.454,0.454,0,0,1-.355-0.54c0-.81,1.326-2.94,2.267-4.19a0.723,0.723,0,0,0,0-.87c-0.941-1.26-2.267-3.39-2.267-4.2a0.449,0.449,0,0,1,.356-0.53,0.376,0.376,0,0,1,.144.02l5.434,3.29a0.749,0.749,0,0,0,.567.08,0.71,0.71,0,0,0,.459-0.34,17.143,17.143,0,0,1,7.781-6.9,0.728,0.728,0,0,0,.394-0.42,0.7,0.7,0,0,0-.028-0.56c-0.192-.4-0.386-0.76-0.558-1.07a4.623,4.623,0,0,1-.762-1.98,0.954,0.954,0,0,1,.831-1.09,1.049,1.049,0,0,1,.374.08l7.218,3.6a0.935,0.935,0,0,0,.287.08,16.494,16.494,0,0,1,4.191.81,11.88,11.88,0,0,0-1,1.41,0.723,0.723,0,0,0,.261,1,0.729,0.729,0,0,0,1.014-.25,9.917,9.917,0,0,1,1.181-1.6,16.74,16.74,0,0,1,3.232,1.87,17.081,17.081,0,0,1,5.6,7.13A17.02,17.02,0,0,1,985.836,1099.5Zm2.016-13.29a2.175,2.175,0,1,0,2.205,2.18A2.2,2.2,0,0,0,987.852,1086.21Zm0,2.89a0.715,0.715,0,1,1,.724-0.71A0.718,0.718,0,0,1,987.852,1089.1Z" transform="translate(-956 -1075)"/>
</svg>
